<svg xmlns="http://www.w3.org/2000/svg" viewBox="0 0 206.817 206.817"><path d="M147.704 62.524a3.55 3.55 0 0 0 2.521-1.045l18.252-18.251c1.393-1.393 1.393-3.649 0-5.042s-3.649-1.393-5.042 0l-18.252 18.251a3.564 3.564 0 0 0 2.521 6.087zM55.444 61.479a3.556 3.556 0 0 0 2.521 1.045 3.564 3.564 0 0 0 2.521-6.087L42.234 38.186c-1.393-1.393-3.649-1.393-5.042 0s-1.393 3.649 0 5.042l18.252 18.251zM55.444 146.177l-18.252 18.252a3.564 3.564 0 0 0 2.521 6.087c.912 0 1.825-.348 2.521-1.045l18.252-18.252c1.393-1.393 1.393-3.649 0-5.042s-3.649-1.393-5.042 0zM150.225 146.177a3.564 3.564 0 0 0-5.042 0 3.564 3.564 0 0 0 0 5.042l18.252 18.252a3.556 3.556 0 0 0 2.521 1.045 3.564 3.564 0 0 0 2.521-6.087l-18.252-18.252zM103.408 49.846c-29.493 0-53.487 23.994-53.487 53.487 0 29.493 23.994 53.487 53.487 53.487 29.493 0 53.487-23.994 53.487-53.487s-23.994-53.487-53.487-53.487zm0 99.843c-25.561 0-46.356-20.794-46.356-46.356s20.794-46.356 46.356-46.356 46.356 20.794 46.356 46.356-20.794 46.356-46.356 46.356zM203.251 99.843h-37.366a3.567 3.567 0 0 0 0 7.132h37.366a3.567 3.567 0 0 0 0-7.132zM44.498 103.408a3.567 3.567 0 0 0-3.566-3.566H3.566a3.567 3.567 0 0 0 0 7.132h37.366a3.567 3.567 0 0 0 3.566-3.566zM103.408 162.319a3.567 3.567 0 0 0-3.566 3.566v37.366a3.567 3.567 0 0 0 7.132 0v-37.366a3.567 3.567 0 0 0-3.566-3.566zM103.408 44.498a3.567 3.567 0 0 0 3.566-3.566V3.566a3.567 3.567 0 0 0-7.132 0v37.366a3.567 3.567 0 0 0 3.566 3.566z"/></svg>