<svg xmlns="http://www.w3.org/2000/svg" viewBox="0 0 202.178 202.178"><path d="M166.395 109.152c-1.882-25.887-24.296-46.392-51.577-46.392a54.74 54.74 0 0 0-3.226.119c1.693-16.524-3.646-32.782-15.054-45.016-5.513-5.915-12.052-10.511-19.436-13.664a3.578 3.578 0 0 0-3.832.672 3.572 3.572 0 0 0-.937 3.777c6.522 18.818 1.327 39.755-13.238 53.336-14.566 13.583-35.81 17.307-54.13 9.482a3.574 3.574 0 0 0-3.832.672 3.57 3.57 0 0 0-.937 3.775c2.627 7.584 6.757 14.429 12.273 20.345 5.41 5.798 12.043 10.349 19.274 13.479-7.075 7.893-11.42 18.28-11.42 29.689 0 .747.156 2.745.323 4.497-8.712 5.081-14.587 14.435-14.587 25.144 0 16.375 13.831 29.674 30.346 29.183.096.009.193.012.291.012h63.166c.221 0 .439-.021.651-.061a24.944 24.944 0 0 0 20.85-14.207l45.328-.046c19.899-1.024 35.487-17.448 35.487-37.39.002-20.093-15.903-36.537-35.783-37.406zM17.686 91.392a50.21 50.21 0 0 1-7.628-10.655c18.905 4.997 39.334.047 53.901-13.537 14.57-13.588 20.928-33.621 17.265-52.826a50.23 50.23 0 0 1 10.097 8.352c10.374 11.124 15.057 26.045 13.024 41.086-17.153 3.389-31.499 14.939-37.849 31.067a44.73 44.73 0 0 0-1.6-.028c-10.375 0-19.91 3.593-27.493 9.56-7.557-2.721-14.194-7.096-19.717-13.019zm81.988 99.714a3.622 3.622 0 0 0-.261.022H37.121c-.185-.021-.373-.026-.564-.021-.327.014-.656.021-.987.021-12.339 0-22.377-9.898-22.377-22.063s10.037-22.063 22.377-22.063c.745 0 1.483.037 2.211.106a3.547 3.547 0 0 0 3.726-2.418c3.548-10.614 13.856-17.746 25.647-17.746 14.826 0 26.888 11.397 26.888 25.436a3.56 3.56 0 0 0 3.748 3.561c.313-.016.629-.024.945-.024 9.851 0 17.866 7.898 17.866 17.606 0 9.375-7.435 17.099-16.927 17.583zm66.832-14.286l-43.027.039c.149-1.094.253-2.203.253-3.337 0-12.891-10.017-23.51-22.751-24.639-1.814-16.318-16.293-29.071-33.828-29.071-13.905 0-26.202 7.955-31.431 20.058h-.153c-2.782 0-5.465.409-8.018 1.124a35.008 35.008 0 0 1-.096-1.57c0-20.645 16.796-37.441 37.441-37.441 1.245 0 2.478.061 3.691.179 1.656.183 3.211-.844 3.735-2.43 5.895-17.848 22.972-29.841 42.496-29.841 24.578 0 44.573 19.196 44.573 42.79a3.564 3.564 0 0 0 3.472 3.564c.432.014.867.009 1.309.005l.568-.004c16.713 0 30.309 13.596 30.309 30.309 0 16.145-12.617 29.44-28.543 30.265z"/></svg>