<svg xmlns="http://www.w3.org/2000/svg" viewBox="0 0 196.119 196.119"><path d="M160.334 76.701c-1.882-25.887-24.296-46.392-51.577-46.392-21.644 0-40.714 12.797-48.321 32.12a44.73 44.73 0 0 0-1.6-.028c-24.578 0-44.573 19.995-44.573 44.573 0 .747.156 2.745.323 4.497C5.875 116.551 0 125.905 0 136.614c0 16.375 13.833 29.655 30.346 29.183.096.009.193.012.291.012h63.166c.221 0 .439-.021.651-.061a24.944 24.944 0 0 0 20.85-14.207l45.328-.046c19.899-1.024 35.487-17.448 35.487-37.39 0-20.091-15.904-36.536-35.785-37.404zm-66.721 81.954a3.622 3.622 0 0 0-.261.022H31.06a5.257 5.257 0 0 0-.564-.021c-.327.014-.656.021-.987.021-12.339 0-22.377-9.898-22.377-22.063s10.037-22.063 22.377-22.063c.745 0 1.483.037 2.211.106a3.56 3.56 0 0 0 3.726-2.418c3.548-10.614 13.856-17.746 25.647-17.746 14.826 0 26.888 11.397 26.888 25.436 0 .977.4 1.912 1.109 2.586.71.674 1.67 1.047 2.639.975.313-.016.629-.024.945-.024 9.851 0 17.866 7.898 17.866 17.606 0 9.375-7.435 17.099-16.927 17.583zm66.833-14.286l-43.027.039c.149-1.094.253-2.203.253-3.337 0-12.891-10.017-23.51-22.751-24.639-1.814-16.317-16.293-29.071-33.828-29.071-13.905 0-26.202 7.955-31.431 20.058h-.153c-2.782 0-5.465.409-8.018 1.124a34.383 34.383 0 0 1-.095-1.57c0-20.645 16.796-37.441 37.441-37.441 1.245 0 2.478.061 3.691.179 1.645.174 3.211-.844 3.735-2.43 5.895-17.848 22.972-29.841 42.495-29.841 24.578 0 44.573 19.196 44.573 42.79a3.564 3.564 0 0 0 3.472 3.564c.432.012.867.007 1.309.005l.568-.004c16.713 0 30.309 13.596 30.309 30.309-.001 16.144-12.617 29.44-28.543 30.265z"/></svg>