<svg xmlns="http://www.w3.org/2000/svg" viewBox="0 0 182.849 182.849"><path d="M146.566 46.392C144.685 20.505 122.27 0 94.99 0 73.348 0 54.276 12.797 46.667 32.12a44.536 44.536 0 0 0-1.598-.028C20.491 32.092.496 52.087.496 76.665s19.995 44.573 44.573 44.573c.467 0 .933-.007 1.396-.021.129.014.258.021.387.021h99.843c.258 0 .512-.03.759-.085 19.619-1.315 34.899-17.612 34.899-37.356-.001-20.091-15.907-36.536-35.787-37.405zm-.07 67.674a2.998 2.998 0 0 0-.376.04H47.384a3.81 3.81 0 0 0-.679-.035c-.543.025-1.087.035-1.637.035-20.646 0-37.441-16.796-37.441-37.441 0-20.645 16.795-37.441 37.441-37.441 1.243 0 2.476.061 3.691.179a3.572 3.572 0 0 0 3.733-2.43C58.389 19.124 75.469 7.132 94.99 7.132c24.578 0 44.573 19.196 44.573 42.835 0 .977.4 1.91 1.107 2.584.707.674 1.672 1.048 2.636.977.533-.026 1.065-.04 1.605-.04 16.711 0 30.309 13.596 30.309 30.309.001 16.143-12.615 29.438-28.724 30.269zM52.987 129.849a3.566 3.566 0 0 0-4.872 1.306l-8.228 14.253a3.566 3.566 0 1 0 6.177 3.566l8.228-14.253a3.563 3.563 0 0 0-1.305-4.872zM52.987 161.941a3.563 3.563 0 0 0-4.872 1.306L39.887 177.5a3.566 3.566 0 1 0 6.177 3.566l8.228-14.253a3.564 3.564 0 0 0-1.305-4.872zM74.382 129.849a3.566 3.566 0 0 0-4.872 1.306l-8.228 14.253a3.566 3.566 0 1 0 6.177 3.566l8.228-14.253a3.564 3.564 0 0 0-1.305-4.872zM74.382 161.941a3.563 3.563 0 0 0-4.872 1.306L61.282 177.5a3.566 3.566 0 1 0 6.177 3.566l8.228-14.253a3.565 3.565 0 0 0-1.305-4.872zM95.777 129.849a3.567 3.567 0 0 0-4.872 1.306l-8.228 14.253a3.566 3.566 0 1 0 6.177 3.566l8.228-14.253a3.565 3.565 0 0 0-1.305-4.872zM95.777 161.941a3.564 3.564 0 0 0-4.872 1.306L82.677 177.5a3.566 3.566 0 1 0 6.177 3.566l8.228-14.253a3.566 3.566 0 0 0-1.305-4.872zM117.172 129.849a3.566 3.566 0 0 0-4.872 1.306l-8.228 14.253a3.566 3.566 0 1 0 6.177 3.566l8.228-14.253a3.565 3.565 0 0 0-1.305-4.872zM117.172 161.941a3.563 3.563 0 0 0-4.872 1.306l-8.228 14.253a3.566 3.566 0 1 0 6.177 3.566l8.228-14.253a3.566 3.566 0 0 0-1.305-4.872zM138.567 129.849a3.567 3.567 0 0 0-4.872 1.306l-8.228 14.253a3.566 3.566 0 1 0 6.177 3.566l8.228-14.253a3.565 3.565 0 0 0-1.305-4.872zM138.567 161.941a3.564 3.564 0 0 0-4.872 1.306l-8.228 14.253a3.566 3.566 0 1 0 6.177 3.566l8.228-14.253a3.566 3.566 0 0 0-1.305-4.872z"/></svg>