<svg xmlns="http://www.w3.org/2000/svg" viewBox="0 0 181.855 181.855"><path d="M146.069 51.74c-1.881-25.887-24.296-46.392-51.576-46.392-21.642 0-40.714 12.797-48.323 32.12a44.536 44.536 0 0 0-1.598-.028C19.995 37.439 0 57.434 0 82.012s19.995 44.573 44.573 44.573h6.479l-.887 2.267a3.57 3.57 0 0 0 .376 3.31 3.57 3.57 0 0 0 2.946 1.555h35.658v39.224a3.566 3.566 0 0 0 6.786 1.529l22.797-48.064c.292.077.576.18.893.18 8.862 0 26.573-.045 26.747-.051 19.897-1.024 35.487-17.448 35.487-37.39.001-20.092-15.905-36.537-35.786-37.405zM96.276 157.101V130.15a3.564 3.564 0 0 0-3.565-3.566H58.71l23.303-59.55v38.242a3.565 3.565 0 0 0 3.566 3.566h33.586l-22.889 48.259zm49.898-37.694s-14.848.038-24.148.045l5.998-12.646a3.558 3.558 0 0 0-.209-3.435 3.56 3.56 0 0 0-3.012-1.659H89.145V48.136a3.567 3.567 0 0 0-6.888-1.299l-28.414 72.614-8.692-.003-.578.003c-20.646 0-37.441-16.796-37.441-37.441 0-20.645 16.795-37.441 37.441-37.441 1.243 0 2.476.061 3.691.179a3.565 3.565 0 0 0 3.733-2.43c5.895-17.847 22.976-29.84 42.497-29.84 24.578 0 44.573 19.196 44.573 42.79a3.564 3.564 0 0 0 3.472 3.564c.439.009.87.007 1.309.005l.568-.004c16.711 0 30.309 13.596 30.309 30.309 0 16.145-12.617 29.44-28.551 30.265z"/></svg>