<svg xmlns="http://www.w3.org/2000/svg" viewBox="0 0 188.988 188.988"><path d="M30.267 53.487c14.747 0 26.744-11.996 26.744-26.744S45.014 0 30.267 0 3.523 11.996 3.523 26.744 15.52 53.487 30.267 53.487zm0-46.355c10.814 0 19.612 8.798 19.612 19.612 0 10.814-8.798 19.612-19.612 19.612-10.814 0-19.612-8.798-19.612-19.612 0-10.814 8.798-19.612 19.612-19.612zM28.484 87.362c0 16.711 12.797 30.309 28.526 30.309h78.448c.294 0 .583-.035.864-.104 17.564-1.435 31.229-16.917 31.229-35.554 0-18.411-13.553-33.799-30.701-35.502-5.438-14.911-20.308-25.117-37.049-25.117-21.087 0-38.341 15.964-39.191 35.897a27.32 27.32 0 0 0-3.599-.239c-15.73.001-28.527 13.597-28.527 30.31zm34.688-22.203a3.568 3.568 0 0 0 4.654-3.712c-.078-.86-.118-1.73-.118-2.612 0-16.713 14.397-30.309 32.092-30.309 14.47 0 27.212 9.204 30.983 22.382a3.568 3.568 0 0 0 3.362 2.584c14.488.266 26.273 13.06 26.273 28.521 0 15.109-11.066 27.618-25.194 28.481a3.545 3.545 0 0 0-.385.045H57.01c-11.798 0-21.395-10.398-21.395-23.178 0-12.78 9.597-23.178 21.395-23.178 2.1.002 4.172.329 6.162.976zM89.188 181.856H14.221a3.565 3.565 0 1 0 0 7.132h74.967a3.565 3.565 0 1 0 0-7.132zM181.899 181.856h-74.967a3.565 3.565 0 1 0 0 7.132h74.967a3.565 3.565 0 1 0 0-7.132zM14.221 153.33H117.69a3.565 3.565 0 1 0 0-7.132H14.221a3.565 3.565 0 1 0 0 7.132zM135.458 146.198a3.565 3.565 0 1 0 0 7.132h46.416a3.565 3.565 0 1 0 0-7.132h-46.416zM14.221 171.159h165.847a3.565 3.565 0 1 0 0-7.132H14.221a3.565 3.565 0 1 0 0 7.132zM10.655 131.935a3.565 3.565 0 0 0 3.566 3.566h165.847a3.565 3.565 0 1 0 0-7.132H14.221a3.565 3.565 0 0 0-3.566 3.566z"/></svg>