<svg xmlns="http://www.w3.org/2000/svg" viewBox="0 0 187.193 187.193"><path d="M161.363 24.33c-9.226-9.895-20.166-17.585-32.514-22.858a3.583 3.583 0 0 0-3.832.672 3.572 3.572 0 0 0-.937 3.777c11.533 33.276 2.347 70.294-23.404 94.308-25.749 24.015-63.321 30.593-95.711 16.767a3.573 3.573 0 0 0-3.832.672 3.572 3.572 0 0 0-.937 3.777c4.4 12.688 11.307 24.136 20.533 34.029 18.908 20.275 44.595 30.53 70.35 30.53 23.493-.002 47.042-8.537 65.539-25.784 18.781-17.516 29.618-41.296 30.515-66.962.897-25.666-8.256-50.144-25.77-68.928zm18.644 68.679c-.83 23.763-10.865 45.779-28.253 61.994-35.898 33.471-92.338 31.504-125.808-4.395-6.723-7.208-12.116-15.306-16.093-24.151 20.327 6.696 42.028 6.289 61.731-.568 1.999 8.356 9.472 24.87 37.302 24.87a3.567 3.567 0 0 0 0-7.132c-24.537 0-29.583-14.57-30.622-20.325a95.952 95.952 0 0 0 27.277-17.858c25.796-24.057 36.203-60.197 27.635-93.989 8.545 4.583 16.248 10.528 22.971 17.738 16.216 17.391 24.689 40.053 23.86 63.816z"/><path d="M137.563 82.922c-1.393-1.393-3.649-1.393-5.042 0s-1.393 3.649 0 5.042l17.829 17.829a3.556 3.556 0 0 0 2.521 1.045 3.564 3.564 0 0 0 2.521-6.087l-17.829-17.829zM140.203 100.083l-7.132-3.566a3.567 3.567 0 1 0-3.19 6.38l7.132 3.566a3.565 3.565 0 0 0 4.784-1.595 3.565 3.565 0 0 0-1.594-4.785z"/></svg>