<svg xmlns="http://www.w3.org/2000/svg" viewBox="0 0 203.25 203.25"><path d="M167.466 101.661c-1.882-25.887-24.296-46.392-51.577-46.392-3.361 0-6.648.343-9.851.937-4.673-25.417-26.518-43.727-52.551-43.727C23.994 12.479 0 36.473 0 65.966c0 18.944 9.989 36.339 26.188 45.971-3.04 6.023-4.793 12.802-4.793 19.997 0 .747.156 2.745.323 4.497-8.712 5.081-14.587 14.435-14.587 25.144 0 16.375 13.868 29.674 30.346 29.183.096.009.193.012.291.012h63.166c.221 0 .439-.021.651-.061a24.944 24.944 0 0 0 20.85-14.207l45.328-.046c19.899-1.024 35.487-17.448 35.487-37.39.001-20.092-15.904-36.537-35.784-37.405zM7.132 65.966c0-25.562 20.794-46.356 46.356-46.356 22.723 0 41.776 16.089 45.64 38.355-14.322 4.708-26.005 15.312-31.56 29.424a44.73 44.73 0 0 0-1.6-.028c-14.833 0-27.96 7.311-36.067 18.489C15.818 97.51 7.132 82.411 7.132 65.966zm93.612 117.649a3.622 3.622 0 0 0-.261.022H38.191c-.185-.021-.373-.026-.564-.021-.327.014-.656.021-.987.021-12.339 0-22.377-9.898-22.377-22.063S24.3 139.511 36.64 139.511c.745 0 1.483.037 2.211.106 1.652.174 3.199-.841 3.726-2.418 3.548-10.614 13.856-17.746 25.647-17.746 14.826 0 26.888 11.397 26.888 25.436 0 .977.4 1.912 1.109 2.586a3.58 3.58 0 0 0 2.639.975c.313-.016.629-.024.945-.024 9.851 0 17.866 7.898 17.866 17.606.001 9.375-7.434 17.099-16.927 17.583zm66.833-14.286l-43.027.039c.149-1.094.253-2.203.253-3.337 0-12.891-10.017-23.51-22.751-24.639-1.814-16.317-16.293-29.071-33.828-29.071-13.905 0-26.202 7.955-31.431 20.058h-.153c-2.782 0-5.465.409-8.018 1.124a34.383 34.383 0 0 1-.095-1.57c0-20.645 16.796-37.441 37.441-37.441 1.245 0 2.478.061 3.691.179 1.649.183 3.211-.844 3.735-2.43C79.289 74.393 96.366 62.4 115.889 62.4c24.578 0 44.573 19.196 44.573 42.79a3.564 3.564 0 0 0 3.472 3.564c.434.014.865.009 1.309.005l.568-.004c16.713 0 30.309 13.596 30.309 30.309-.001 16.144-12.617 29.44-28.543 30.265z"/></svg>