<svg xmlns="http://www.w3.org/2000/svg" viewBox="0 0 196.119 196.119"><path d="M131.935 51.012c0-17.697-14.396-32.092-32.092-32.092a31.92 31.92 0 0 0-15.896 4.21c-8.974-5.77-21.343-5.429-30.01.804a32.088 32.088 0 0 0-21.844-8.58C14.396 15.354 0 29.749 0 47.446s14.396 32.092 32.092 32.092c.178 0 .359 0 .536-.004 2.493 12.251 13.386 21.398 26.207 21.398 12.933 0 23.749-9.228 26.214-21.444a32.212 32.212 0 0 0 14.792 3.615c17.698.001 32.094-14.394 32.094-32.091zm-32.092 24.96c-5.746 0-11.147-1.898-15.614-5.485a3.575 3.575 0 0 0-3.827-.411 3.566 3.566 0 0 0-1.968 3.312l.014.801c0 10.812-8.8 19.612-19.612 19.612-10.293 0-18.888-8.033-19.567-18.292a3.566 3.566 0 0 0-4.005-3.301c-1.038.132-2.1.199-3.172.199-13.762 0-24.961-11.199-24.961-24.961 0-13.762 11.199-24.961 24.961-24.961a24.968 24.968 0 0 1 18.874 8.625 3.582 3.582 0 0 0 2.514 1.226c.982.077 1.919-.3 2.626-.965a19.522 19.522 0 0 1 13.427-5.321c4.429 0 8.608 1.442 12.083 4.165a3.577 3.577 0 0 0 4.207.143 24.837 24.837 0 0 1 14.019-4.307c13.762 0 24.961 11.199 24.961 24.961 0 13.762-11.198 24.96-24.96 24.96zM167.593 61.709c-10.711 0-20.273 5.829-25.184 15.106a28.524 28.524 0 0 0-6.909-.843c-15.729 0-28.526 12.797-28.526 28.526s12.797 28.526 28.526 28.526c10.708 0 20.267-5.833 25.184-15.106 2.25.561 4.562.843 6.909.843 15.729 0 28.526-12.797 28.526-28.526s-12.797-28.526-28.526-28.526zm0 49.922c-2.605 0-5.157-.463-7.577-1.379a3.57 3.57 0 0 0-4.583 2.037c-3.231 8.263-11.056 13.605-19.932 13.605-11.798 0-21.395-9.597-21.395-21.395s9.597-21.395 21.395-21.395c2.605 0 5.157.463 7.577 1.379a3.564 3.564 0 0 0 4.583-2.037c3.231-8.263 11.053-13.605 19.932-13.605 11.798 0 21.395 9.597 21.395 21.395s-9.597 21.395-21.395 21.395zM83.908 127.52c-6.063-3.499-13.083-4.628-19.821-3.28-.989-5.652-4.429-10.722-9.517-13.657-4.537-2.619-9.823-3.319-14.883-1.96a19.487 19.487 0 0 0-11.909 9.137c-4.036 6.999-3.367 15.461 1.309 21.618a19.588 19.588 0 0 0-4.524 5.349 19.476 19.476 0 0 0-1.957 14.883 19.473 19.473 0 0 0 9.137 11.906 19.51 19.51 0 0 0 17.777.94 28.597 28.597 0 0 0 5.861 4.475c4.395 2.538 9.273 3.834 14.214 3.834 2.479 0 4.973-.327 7.431-.986 7.362-1.971 13.511-6.693 17.321-13.292 3.809-6.599 4.823-14.284 2.852-21.646-1.974-7.358-6.692-13.512-13.291-17.321zm4.262 35.4a21.254 21.254 0 0 1-12.989 9.97 21.245 21.245 0 0 1-16.234-2.138 21.315 21.315 0 0 1-5.895-5.011 3.561 3.561 0 0 0-2.768-1.313 3.59 3.59 0 0 0-1.936.571 12.427 12.427 0 0 1-13.037.338 12.39 12.39 0 0 1-5.815-7.577 12.384 12.384 0 0 1 1.247-9.468 12.398 12.398 0 0 1 5.45-5.035 3.57 3.57 0 0 0 2.013-2.8 3.581 3.581 0 0 0-1.299-3.197c-4.799-3.876-6.038-10.579-2.949-15.935a12.409 12.409 0 0 1 7.577-5.815 12.437 12.437 0 0 1 9.472 1.25c4.161 2.399 6.595 7.048 6.198 11.843a3.567 3.567 0 0 0 4.822 3.625c6.045-2.295 12.727-1.762 18.316 1.469a21.234 21.234 0 0 1 9.966 12.989 21.246 21.246 0 0 1-2.139 16.234z"/></svg>