<svg xmlns="http://www.w3.org/2000/svg" viewBox="0 0 196.119 196.119"><path d="M67.366 152.925a3.567 3.567 0 0 0-4.872 1.306L46.39 182.12a3.568 3.568 0 0 0 3.085 5.349c1.233 0 2.43-.637 3.092-1.783l16.104-27.889a3.567 3.567 0 0 0-1.305-4.872zM88.76 152.925a3.567 3.567 0 0 0-4.872 1.306L67.784 182.12a3.568 3.568 0 0 0 3.085 5.349c1.233 0 2.43-.637 3.092-1.783l16.104-27.889a3.565 3.565 0 0 0-1.305-4.872zM110.155 152.925a3.566 3.566 0 0 0-4.872 1.306L89.18 182.12a3.568 3.568 0 0 0 3.085 5.349c1.233 0 2.43-.637 3.092-1.783l16.104-27.889a3.566 3.566 0 0 0-1.306-4.872zM131.55 152.925a3.566 3.566 0 0 0-4.872 1.306l-16.104 27.889a3.568 3.568 0 0 0 3.085 5.349c1.233 0 2.43-.637 3.092-1.783l16.104-27.889a3.566 3.566 0 0 0-1.305-4.872zM152.945 152.925a3.567 3.567 0 0 0-4.872 1.306l-16.104 27.889a3.568 3.568 0 0 0 3.085 5.349c1.233 0 2.43-.637 3.092-1.783l16.104-27.889a3.566 3.566 0 0 0-1.305-4.872zM160.334 55.041C158.452 29.155 136.039 8.65 108.757 8.65c-21.644 0-40.714 12.797-48.321 32.12a44.73 44.73 0 0 0-1.6-.028c-24.578 0-44.573 19.995-44.573 44.573 0 .747.156 2.745.323 4.497C5.875 94.893 0 104.247 0 114.955c0 16.377 13.859 29.634 30.353 29.185.094.007.188.01.284.01h63.166c.219 0 .437-.021.649-.063a24.936 24.936 0 0 0 20.852-14.205l45.328-.044c19.899-1.024 35.487-17.449 35.487-37.392 0-20.09-15.904-36.535-35.785-37.405zm-66.721 81.953c-.087.007-.176.014-.261.024H31.06a2.95 2.95 0 0 0-.582-.021c-.32.014-.644.021-.97.021-12.339 0-22.377-9.897-22.377-22.063s10.037-22.063 22.377-22.063c.745 0 1.483.037 2.211.106a3.562 3.562 0 0 0 3.726-2.418c3.548-10.614 13.856-17.746 25.647-17.746 14.826 0 26.888 11.397 26.888 25.434a3.57 3.57 0 0 0 1.104 2.58 3.508 3.508 0 0 0 2.627.982c10.13-.453 18.829 7.557 18.829 17.582 0 9.379-7.435 17.101-16.927 17.582zm66.833-14.283l-43.027.039c.149-1.094.253-2.203.253-3.337 0-12.891-10.017-23.51-22.751-24.639-1.814-16.317-16.293-29.071-33.828-29.071-13.905 0-26.202 7.955-31.431 20.058h-.153c-2.782 0-5.465.409-8.018 1.124a34.383 34.383 0 0 1-.095-1.57c0-20.645 16.796-37.441 37.441-37.441 1.245 0 2.478.061 3.691.179 1.647.178 3.211-.846 3.735-2.43 5.895-17.848 22.972-29.841 42.495-29.841 24.578 0 44.573 19.196 44.573 42.79a3.564 3.564 0 0 0 3.472 3.564c.432.009.867.005 1.309.005l.568-.004c16.713 0 30.309 13.596 30.309 30.309-.001 16.143-12.617 29.442-28.543 30.265z"/></svg>