<svg xmlns="http://www.w3.org/2000/svg" viewBox="0 0 181.857 181.857"><path d="M146.069 48.177C144.188 22.29 121.773 1.785 94.493 1.785c-21.642 0-40.714 12.797-48.323 32.12a44.536 44.536 0 0 0-1.598-.028C19.995 33.877 0 53.872 0 78.45s19.995 44.573 44.573 44.573c.467 0 .933-.007 1.396-.021.129.014.258.021.387.021h99.843c.258 0 .512-.03.759-.085 19.619-1.315 34.899-17.612 34.899-37.356-.001-20.092-15.907-36.536-35.788-37.405zM146 115.851a2.998 2.998 0 0 0-.376.04H46.888a4.208 4.208 0 0 0-.679-.035c-.543.025-1.087.035-1.637.035-20.646 0-37.441-16.796-37.441-37.441s16.795-37.441 37.441-37.441c1.243 0 2.476.061 3.691.179a3.574 3.574 0 0 0 3.733-2.43C57.892 20.909 74.973 8.916 94.494 8.916c24.578 0 44.573 19.196 44.573 42.835 0 .977.4 1.91 1.107 2.584.71.672 1.675 1.041 2.636.977.533-.026 1.065-.04 1.605-.04 16.711 0 30.309 13.596 30.309 30.309.001 16.144-12.616 29.439-28.724 30.27zM88.1 145.462a3.564 3.564 0 0 0-5.042 0l-6.087 6.087h-2.746a10.679 10.679 0 0 0-6.474-6.474v-2.746l6.087-6.087c1.393-1.393 1.393-3.649 0-5.042s-3.649-1.393-5.042 0l-4.61 4.61-4.611-4.611c-1.393-1.393-3.649-1.393-5.042 0s-1.393 3.649 0 5.042l6.087 6.087v2.746a10.679 10.679 0 0 0-6.474 6.474H51.4l-6.087-6.087c-1.393-1.393-3.649-1.393-5.042 0s-1.393 3.649 0 5.042l4.61 4.61-4.611 4.611a3.564 3.564 0 0 0 2.521 6.086c.912 0 1.825-.348 2.521-1.045l6.087-6.087h2.747a10.679 10.679 0 0 0 6.474 6.474v2.747l-6.087 6.087a3.564 3.564 0 0 0 0 5.042 3.564 3.564 0 0 0 5.042 0l4.61-4.611 4.611 4.611c.696.696 1.609 1.044 2.521 1.044s1.825-.348 2.521-1.045a3.564 3.564 0 0 0 0-5.042l-6.087-6.087v-2.746a10.679 10.679 0 0 0 6.474-6.474h2.746l6.087 6.087a3.558 3.558 0 0 0 2.521 1.045 3.564 3.564 0 0 0 2.521-6.087l-4.61-4.61 4.611-4.611a3.56 3.56 0 0 0-.001-5.04zM64.185 158.68c-1.968 0-3.566-1.6-3.566-3.566s1.598-3.566 3.566-3.566 3.566 1.6 3.566 3.566-1.599 3.566-3.566 3.566zM152.285 145.462a3.564 3.564 0 0 0-5.042 0l-6.087 6.087h-2.746a10.679 10.679 0 0 0-6.474-6.474v-2.746l6.087-6.087c1.393-1.393 1.393-3.649 0-5.042s-3.649-1.393-5.042 0l-4.61 4.61-4.611-4.611c-1.393-1.393-3.649-1.393-5.042 0s-1.393 3.649 0 5.042l6.087 6.087v2.746a10.679 10.679 0 0 0-6.474 6.474h-2.746l-6.087-6.087a3.564 3.564 0 0 0-5.042 0 3.564 3.564 0 0 0 0 5.042l4.61 4.61-4.611 4.611a3.564 3.564 0 0 0 2.521 6.086c.912 0 1.825-.348 2.521-1.045l6.087-6.087h2.747a10.679 10.679 0 0 0 6.474 6.474v2.747l-6.087 6.087a3.564 3.564 0 0 0 0 5.042 3.564 3.564 0 0 0 5.042 0l4.61-4.611 4.611 4.611a3.555 3.555 0 0 0 2.521 1.044 3.564 3.564 0 0 0 2.521-6.087l-6.087-6.087v-2.746a10.679 10.679 0 0 0 6.474-6.474h2.746l6.087 6.087a3.558 3.558 0 0 0 2.521 1.045 3.564 3.564 0 0 0 2.521-6.087l-4.61-4.61 4.611-4.611a3.562 3.562 0 0 0-.001-5.04zm-23.916 13.218c-1.968 0-3.566-1.6-3.566-3.566s1.598-3.566 3.566-3.566 3.566 1.6 3.566 3.566-1.598 3.566-3.566 3.566z"/></svg>